<?xml version="1.0" encoding="utf-8"?>

<!DOCTYPE svg PUBLIC "-//W3C//DTD SVG 1.1//EN" "http://www.w3.org/Graphics/SVG/1.1/DTD/svg11.dtd">
<!-- Uploaded to: SVG Repo, www.svgrepo.com, Generator: SVG Repo Mixer Tools -->
<svg version="1.1" id="Layer_1" xmlns:sketch="http://www.bohemiancoding.com/sketch/ns"
	 xmlns="http://www.w3.org/2000/svg" xmlns:xlink="http://www.w3.org/1999/xlink"  width="800px" height="800px"
	 viewBox="0 0 63 57" enable-background="new 0 0 63 57" xml:space="preserve">
<title>Bank</title>
<desc>Created with Sketch.</desc>
<g id="Page-1" sketch:type="MSPage">
	<g id="Bank" transform="translate(1.000000, 2.000000)" sketch:type="MSLayerGroup">
		<path id="Shape" sketch:type="MSShapeGroup" fill="none" stroke="#6B6C6E" stroke-width="2" stroke-linejoin="round" d="M59,46.9
			H47h11V44c0-1.1-0.9-2-2-2h-3V25h1.9c1.1,0,2-0.9,2-2v-3.6c0-1.1-0.9-2.2-2-2.2h-5.233H53.9v-1L30.5,0L7.2,16.2v1h4.883H6.2
			c-1.1,0-2,0.9-2,2v3.6c0,1.1,0.9,2.2,2,2.2h2.9v16.8H5.2c-1.1,0-2,0.9-2,2v2.9H15H2.2c-1.1,0-2,0.9-2,2v3.1c0,1.1,0.9,2,2,2H59
			c1.1,0,2-0.9,2-2v-3.1C61,47.8,60.1,46.9,59,46.9L59,46.9z"/>
		
			<circle id="Oval" sketch:type="MSShapeGroup" fill="none" stroke="#6B6C6E" stroke-width="2" stroke-linejoin="round" cx="31" cy="9" r="3">
		</circle>
		
			<rect id="Rectangle-path" x="15" y="25" sketch:type="MSShapeGroup" fill="none" stroke="#6B6C6E" stroke-width="2" stroke-linejoin="round" width="4" height="17">
		</rect>
		
			<rect id="Rectangle-path_1_" x="24" y="25" sketch:type="MSShapeGroup" fill="none" stroke="#6B6C6E" stroke-width="2" stroke-linejoin="round" width="4" height="17">
		</rect>
		
			<rect id="Rectangle-path_2_" x="34" y="25" sketch:type="MSShapeGroup" fill="none" stroke="#6B6C6E" stroke-width="2" stroke-linejoin="round" width="4" height="17">
		</rect>
		
			<rect id="Rectangle-path_3_" x="43" y="25" sketch:type="MSShapeGroup" fill="none" stroke="#6B6C6E" stroke-width="2" stroke-linejoin="round" width="4" height="17">
		</rect>
	</g>
</g>
</svg>