<svg width="16" height="18" viewBox="0 0 16 18" fill="none" xmlns="http://www.w3.org/2000/svg">
<path d="M3.83333 4.00002V1.50002C3.83333 1.27901 3.92113 1.06704 4.07741 0.910765C4.23369 0.754484 4.44565 0.666687 4.66667 0.666687H14.6667C14.8877 0.666687 15.0996 0.754484 15.2559 0.910765C15.4122 1.06704 15.5 1.27901 15.5 1.50002V13.1667C15.5 13.3877 15.4122 13.5997 15.2559 13.7559C15.0996 13.9122 14.8877 14 14.6667 14H12.1667V16.5C12.1667 16.96 11.7917 17.3334 11.3275 17.3334H1.33917C1.22927 17.334 1.12033 17.313 1.0186 17.2714C0.916873 17.2298 0.824361 17.1685 0.746382 17.0911C0.668403 17.0137 0.606494 16.9216 0.564212 16.8201C0.52193 16.7187 0.500108 16.6099 0.5 16.5L0.5025 4.83335C0.5025 4.37335 0.8775 4.00002 1.34167 4.00002H3.83333ZM5.5 4.00002H12.1667V12.3334H13.8333V2.33335H5.5V4.00002Z" fill="#332600"/>
</svg>
