<svg width="25" height="19" viewBox="0 0 25 19" fill="none" xmlns="http://www.w3.org/2000/svg">
<path opacity="0.5" d="M4.77202 18.662L0.866028 11.246L0.914029 11.174C3.11603 7.82 9.06203 6.68 12.992 5.924C13.67 5.792 14.306 5.672 14.852 5.552C18.512 4.748 20.084 1.05201 20.036 0.71001L20.306 0.596008L24.65 8.522L24.596 8.6C23.1593 10.5037 21.3417 12.0871 19.2591 13.2492C17.1765 14.4114 14.8745 15.1269 12.5 15.35C9.23603 15.584 4.95203 18.536 4.91003 18.566L4.77202 18.662ZM1.20802 11.264L4.88003 18.23C5.65403 17.714 9.42803 15.278 12.482 15.056C14.7975 14.8379 17.0428 14.1432 19.077 13.0156C21.1111 11.8881 22.89 10.352 24.302 8.504L20.246 1.10001C20.1515 1.35748 20.0392 1.60808 19.91 1.85001C19.502 2.618 17.93 5.18 14.918 5.84C14.366 5.96 13.718 6.08 13.046 6.212C9.20003 6.956 3.38002 8.066 1.20802 11.264Z" fill="white"/>
</svg>
