<svg width="26" height="20" viewBox="0 0 26 20" fill="none" xmlns="http://www.w3.org/2000/svg">
<path d="M24.5081 11.2873H21.1731V8.08216H24.5081C25.0092 8.08216 25.4154 7.67636 25.4154 7.17516C25.4154 6.6739 25.0092 6.26786 24.5081 6.26786H21.1731V1.82056C21.1731 1.17137 21.0448 0.694875 20.7919 0.404618C20.5516 0.128489 20.2356 0 19.798 0C19.3804 0 19.0763 0.127603 18.8406 0.402009C18.5907 0.692561 18.4638 1.16994 18.4638 1.82085V6.2684H12.1906L9.52329 2.23217C9.29501 1.87195 9.08037 1.53453 8.87193 1.21065C8.68427 0.918968 8.50124 0.681485 8.32834 0.50416C8.17529 0.347167 8.00087 0.225668 7.79686 0.13228C7.60437 0.0444051 7.35965 0.000295403 7.07013 0.000295403C6.70086 0.000295403 6.36566 0.101462 6.04468 0.309309C5.72705 0.514892 5.50749 0.769064 5.37339 1.0864C5.25568 1.38798 5.1934 1.8501 5.1934 2.44661V6.2681H1.89158C1.39057 6.26815 0.984619 6.6742 0.984619 7.17541C0.984619 7.67661 1.39057 8.08241 1.89162 8.08241H5.19345V11.2879H1.89162C1.39057 11.2879 0.984619 11.6938 0.984619 12.1952C0.984619 12.6963 1.39057 13.1019 1.89162 13.1019H5.19345V18.1796C5.19345 18.8096 5.32583 19.2812 5.58803 19.581C5.83737 19.8667 6.15353 19.9994 6.58286 19.9994C6.99708 19.9994 7.31077 19.8661 7.57089 19.5798C7.83728 19.2865 7.97202 18.8151 7.97202 18.1796V13.1019H13.6486L16.7205 17.8123C16.9341 18.1237 17.1546 18.438 17.3746 18.7462C17.573 19.0229 17.7895 19.2667 18.0179 19.4704C18.2237 19.6546 18.4442 19.7896 18.6735 19.872C18.9095 19.9569 19.1853 20 19.4914 20C20.3222 20 21.173 19.7457 21.173 17.8595V13.1019H24.508C25.0091 13.1019 25.4153 12.6957 25.4153 12.1946C25.4154 11.6935 25.0092 11.2873 24.5081 11.2873ZM18.4638 8.08212V11.2873H15.508L13.3901 8.08212H18.4638ZM7.97207 4.3993L9.19099 6.26786H7.97207V4.3993ZM7.97207 11.2873V8.08216H10.3746L12.4651 11.2873H7.97207ZM18.4638 15.7609L16.7071 13.1019H18.4638V15.7609Z" fill="#1AB6DC"/>
</svg>
