<?xml version="1.0" encoding="iso-8859-1"?>
<!-- Generator: Adobe Illustrator 17.1.0, SVG Export Plug-In . SVG Version: 6.00 Build 0)  -->
<!DOCTYPE svg PUBLIC "-//W3C//DTD SVG 1.1//EN" "http://www.w3.org/Graphics/SVG/1.1/DTD/svg11.dtd">
<svg version="1.1" id="Capa_1" xmlns="http://www.w3.org/2000/svg" xmlns:xlink="http://www.w3.org/1999/xlink" x="0px" y="0px"
	 viewBox="0 0 201.574 201.574" style="enable-background:new 0 0 201.574 201.574;" xml:space="preserve">
<path d="M167.294,187.408H24.233C10.871,187.408,0,176.537,0,163.175v-99.54c0-13.362,10.871-24.233,24.233-24.233h40.806
	l68.008-25.052c0.764-0.281,1.607-0.24,2.339,0.112c0.732,0.353,1.29,0.988,1.546,1.76l2.894,8.741l17.841-5.658
	c0.785-0.248,1.638-0.164,2.358,0.234c0.721,0.398,1.246,1.075,1.453,1.872l4.667,17.99h1.149c13.362,0,24.233,10.871,24.233,24.233
	V88.56c5.789,1.621,10.047,6.944,10.047,13.244v23.204c0,6.299-4.258,11.623-10.047,13.244v24.924
	C191.527,176.537,180.656,187.408,167.294,187.408z M24.233,45.403C14.179,45.403,6,53.582,6,63.636v99.54
	c0,10.054,8.179,18.233,18.233,18.233h143.061c10.054,0,18.233-8.179,18.233-18.233v-24.418h-53.546
	c-7.194,0-13.047-5.853-13.047-13.047v-24.609c0-7.194,5.853-13.047,13.047-13.047h53.546V63.636
	c0-10.054-8.179-18.233-18.233-18.233h-3.406c-0.044,0.001-0.088,0.001-0.132,0H142.51c-0.046,0.001-0.092,0.001-0.139,0H65.645
	c-0.047,0.001-0.094,0.001-0.14,0H24.233z M124.934,125.007c0,4.273,3.477,7.75,7.75,7.75h55.141c4.273,0,7.75-3.477,7.75-7.75
	v-23.204c0-4.273-3.477-7.75-7.75-7.75h-55.141c-4.273,0-7.75,3.477-7.75,7.75V125.007z M144.607,39.403h15.339l-3.482-13.421
	l-14.752,4.678L144.607,39.403z M82.397,39.403h55.89l-3.211-9.699c-0.009-0.026-0.018-0.052-0.026-0.078
	c0-0.001-0.001-0.003-0.001-0.005l-2.837-8.568L82.397,39.403z M142.44,124.762c-6.262,0-11.356-5.095-11.356-11.356
	c0-6.262,5.094-11.356,11.356-11.356c6.262,0,11.356,5.094,11.356,11.356C153.797,119.667,148.702,124.762,142.44,124.762z
	 M142.44,108.049c-2.954,0-5.356,2.403-5.356,5.356s2.403,5.356,5.356,5.356s5.356-2.403,5.356-5.356
	S145.394,108.049,142.44,108.049z"/>
<g>
</g>
<g>
</g>
<g>
</g>
<g>
</g>
<g>
</g>
<g>
</g>
<g>
</g>
<g>
</g>
<g>
</g>
<g>
</g>
<g>
</g>
<g>
</g>
<g>
</g>
<g>
</g>
<g>
</g>
</svg>
