<svg width="40" height="40" viewBox="0 0 40 40" fill="none" xmlns="http://www.w3.org/2000/svg">
<circle cx="20" cy="20" r="20" fill="#FA6E08" fill-opacity="0.1"/>
<path d="M16.2328 27.0592L12 28L12.9408 23.7672C12.3212 22.6083 11.998 21.3141 12 20C12 15.5816 15.5816 12 20 12C24.4184 12 28 15.5816 28 20C28 24.4184 24.4184 28 20 28C18.6859 28.002 17.3917 27.6788 16.2328 27.0592ZM16.4648 25.3688L16.9872 25.6488C17.914 26.1441 18.9491 26.4022 20 26.4C21.2658 26.4 22.5032 26.0246 23.5557 25.3214C24.6081 24.6182 25.4284 23.6186 25.9128 22.4492C26.3972 21.2797 26.524 19.9929 26.277 18.7514C26.0301 17.5099 25.4205 16.3696 24.5255 15.4745C23.6304 14.5795 22.4901 13.9699 21.2486 13.723C20.0071 13.476 18.7203 13.6028 17.5508 14.0872C16.3814 14.5716 15.3818 15.3919 14.6786 16.4443C13.9754 17.4968 13.6 18.7342 13.6 20C13.6 21.0672 13.86 22.0944 14.352 23.0128L14.6312 23.5352L14.1072 25.8928L16.4648 25.3688Z" fill="#FA6E08"/>
</svg>
