<svg width="40" height="40" viewBox="0 0 40 40" fill="none" xmlns="http://www.w3.org/2000/svg">
<circle cx="20" cy="20" r="20" fill="#F938FD" fill-opacity="0.1"/>
<path d="M12.8 13H27.2C27.4122 13 27.6157 13.0843 27.7657 13.2343C27.9157 13.3843 28 13.5878 28 13.8V26.6C28 26.8122 27.9157 27.0157 27.7657 27.1657C27.6157 27.3157 27.4122 27.4 27.2 27.4H12.8C12.5878 27.4 12.3843 27.3157 12.2343 27.1657C12.0843 27.0157 12 26.8122 12 26.6V13.8C12 13.5878 12.0843 13.3843 12.2343 13.2343C12.3843 13.0843 12.5878 13 12.8 13ZM26.4 16.3904L20.0576 22.0704L13.6 16.3728V25.8H26.4V16.3904ZM14.0088 14.6L20.0488 19.9296L26.0016 14.6H14.0088Z" fill="#F938FD"/>
</svg>
