<?xml version="1.0" encoding="iso-8859-1"?>
<!-- Generator: Adobe Illustrator 18.0.0, SVG Export Plug-In . SVG Version: 6.00 Build 0)  -->
<!DOCTYPE svg PUBLIC "-//W3C//DTD SVG 1.1//EN" "http://www.w3.org/Graphics/SVG/1.1/DTD/svg11.dtd">
<svg version="1.1" id="Capa_1" xmlns="http://www.w3.org/2000/svg" xmlns:xlink="http://www.w3.org/1999/xlink" x="0px" y="0px"
	 viewBox="0 0 457.223 457.223" style="enable-background:new 0 0 457.223 457.223;" xml:space="preserve">
<g>
	<path d="M453.473,209.361L143.917,30.638c-2.32-1.34-5.18-1.34-7.5,0L3.768,107.223c-2.32,1.339-3.75,3.815-3.75,6.494L0,241.367
		c0,2.68,1.429,5.156,3.75,6.496l309.556,178.722c1.16,0.67,2.455,1.005,3.75,1.005s2.589-0.335,3.749-1.004l132.667-76.573
		c2.321-1.339,3.751-3.816,3.751-6.496V215.856C457.223,213.176,455.793,210.7,453.473,209.361z M110.742,292.314l-95.741-55.276
		l0.001-8.228l95.74,55.284V292.314z M110.742,266.774L15.004,211.49l0.001-8.198l95.737,55.283V266.774z M110.742,241.254
		l-95.734-55.281l0.001-8.208l95.733,55.281V241.254z M110.742,215.724l-95.731-55.279l0.001-8.209l95.73,55.279V215.724z
		 M110.742,190.193l-95.728-55.277l0.001-8.208l95.727,55.274V190.193z M22.517,113.719l117.65-67.926l95.526,55.152
		l-117.969,67.748L22.517,113.719z M199.003,343.272l-73.261-42.297V190.644l73.261,42.302V343.272z M132.744,177.366
		l117.969-67.749l73.334,42.34l-118.88,67.228L132.744,177.366z M309.556,407.1l-95.553-55.168v-8.215l95.553,55.18V407.1z
		 M309.556,381.575l-95.553-55.18v-8.2l95.553,55.171V381.575z M309.556,356.046l-95.553-55.171v-8.209l95.553,55.171V356.046z
		 M309.556,330.516l-95.553-55.171v-8.21l95.553,55.171V330.516z M309.556,304.986l-95.553-55.171v-8.208l95.553,55.174V304.986z
		 M317.056,283.791l-96.812-55.901l118.881-67.228l95.598,55.193L317.056,283.791z M442.223,339.186l-117.667,67.915v-8.208
		l117.667-67.938V339.186z M442.223,313.635l-117.667,67.938v-8.21l117.667-67.938V313.635z M442.223,288.104l-117.667,67.938
		v-8.209l117.667-67.929V288.104z M442.223,262.584l-117.667,67.929v-8.21l117.667-67.929V262.584z M442.223,237.055
		l-117.667,67.929v-8.202l117.667-67.935V237.055z"/>
	<path d="M281.545,141.525c2.68-2.319,3.417-6.286,1.561-9.454c-2.095-3.575-6.689-4.774-10.263-2.68l-4.617,2.704
		c-14.975-5.933-32.1-4.763-46.199,3.495l-0.157,0.091c-6.053,3.546-9.64,9.851-9.596,16.866c0.024,3.834,1.137,7.439,3.131,10.49
		l-27.47,16.091c-0.929-1.06-1.06-2.292-1.062-2.873c-0.002-0.768,0.208-2.676,2.203-3.828c3.587-2.071,4.816-6.658,2.745-10.245
		c-2.071-3.587-6.659-4.815-10.245-2.745c-6.096,3.52-9.723,9.824-9.702,16.863c0.011,3.857,1.123,7.482,3.126,10.549
		c-2.712,2.314-3.467,6.303-1.602,9.487c1.396,2.383,3.903,3.71,6.478,3.71c1.288,0,2.593-0.332,3.784-1.03l4.668-2.734
		c6.248,2.474,12.865,3.722,19.486,3.722c9.251,0,18.502-2.414,26.724-7.234l0.145-0.084c6.051-3.548,9.637-9.853,9.591-16.867
		c-0.025-3.83-1.136-7.43-3.127-10.477l27.467-16.09c0.928,1.059,1.059,2.292,1.062,2.872c0.002,0.768-0.207,2.677-2.202,3.829
		l-4.733,2.733c-3.587,2.071-4.816,6.658-2.745,10.245c2.072,3.588,6.661,4.816,10.245,2.745l4.733-2.733
		c6.098-3.521,9.725-9.825,9.702-16.866C284.665,148.218,283.552,144.593,281.545,141.525z M227.274,152.452
		c-0.005-0.765,0.198-2.668,2.171-3.825l0.157-0.092c5.953-3.487,12.659-5.2,19.361-5.157l-20.531,12.027
		C227.429,154.33,227.278,153.048,227.274,152.452z M229.275,175.916c0.005,0.765-0.197,2.668-2.179,3.83l-0.145,0.084
		c-5.954,3.49-12.659,5.206-19.358,5.167l20.531-12.027C229.122,174.044,229.271,175.321,229.275,175.916z"/>
</g>
<g>
</g>
<g>
</g>
<g>
</g>
<g>
</g>
<g>
</g>
<g>
</g>
<g>
</g>
<g>
</g>
<g>
</g>
<g>
</g>
<g>
</g>
<g>
</g>
<g>
</g>
<g>
</g>
<g>
</g>
</svg>
